<?xml version="1.0" encoding="utf-8"?>
<!-- Generator: Adobe Illustrator 24.2.0, SVG Export Plug-In . SVG Version: 6.00 Build 0)  -->
<svg version="1.1" id="Layer_1" xmlns="http://www.w3.org/2000/svg" xmlns:xlink="http://www.w3.org/1999/xlink" x="0px" y="0px"
	 viewBox="0 0 1100 260" style="enable-background:new 0 0 1100 260;" xml:space="preserve">
<style type="text/css">
	.st0{fill:#ED2290;}
</style>
<g>
	<path class="st0" d="M179.6,172.8c0,17.7-6.2,32.6-18.6,44.9c-12.4,12.3-27.5,18.4-45.3,18.4H95.1c-5.7,0.1-11.2-2.1-15.2-6.1
		c-8.3-8.3-8.2-21.8,0.1-30.1c0,0,0,0,0,0c4-4.1,9.5-6.3,15.2-6.2h20.7c5.6,0.1,10.9-2.2,14.8-6.1c4-3.8,6.2-9.1,6.2-14.6v-42.8
		c0.1-11.5-9.2-20.9-20.7-21c-0.1,0-0.2,0-0.3,0c-5.6-0.1-11.1,2.1-15.1,6.1c-4,3.9-6.3,9.3-6.2,14.8c0,3.5,1.8,8.2,5.4,14
		s5.4,10.5,5.4,14c0.1,5.7-2.2,11.1-6.3,15c-4,4.1-9.4,6.3-15.1,6.2c-9.7,0-17.8-6-24.2-18c-5.2-9.6-8-20.3-8-31.2
		c0-17.7,6.1-32.7,18.6-45s27.5-18.5,45.3-18.5c17.8,0,32.9,6.2,45.3,18.5c12.4,12.3,18.6,27.3,18.6,45V172.8z"/>
	<path class="st0" d="M231.7,172.2c0.1,5.7-2.2,11.1-6.3,15c-8.3,8.3-21.9,8.3-30.2,0c-4.1-3.9-6.4-9.3-6.3-15V45.1
		c-0.1-5.7,2.2-11.1,6.3-15c8.3-8.3,21.9-8.3,30.2,0c4.1,3.9,6.4,9.3,6.3,15V172.2z"/>
	<path class="st0" d="M369.4,129.9c0,17.7-6.2,32.7-18.5,45s-27.4,18.5-45.2,18.5c-17.8,0-32.9-6.2-45.3-18.5
		c-12.4-12.3-18.6-27.3-18.6-45c0-17.7,6.2-32.6,18.6-44.9c12.4-12.3,27.5-18.4,45.3-18.4c17.8,0,32.8,6.1,45.2,18.4
		C363.2,97.3,369.4,112.2,369.4,129.9z M326.6,129.9c-0.1-11.5-9.4-20.8-20.9-20.8c-5.6-0.1-11,2-15,6c-4,3.9-6.3,9.3-6.1,14.8
		c0,11.6,9.3,21,20.9,21.1c0.1,0,0.2,0,0.2,0c5.6,0.1,11-2.1,14.8-6.1C324.5,140.9,326.7,135.5,326.6,129.9z"/>
	<path class="st0" d="M589.6,130c0,17.6-6.2,32.6-18.6,44.9c-12.4,12.3-27.5,18.5-45.3,18.5c-15.7,0.1-30.9-5.6-42.5-16.2
		c-11.5,10.6-26.6,16.4-42.3,16.2c-17.8,0-32.9-6.2-45.3-18.5c-12.4-12.3-18.6-27.3-18.6-44.9V87.8c-0.1-5.7,2.1-11.1,6.2-15.1
		c8.5-8.2,21.9-8.2,30.5,0c4.1,4,6.3,9.4,6.2,15.1V130c-0.1,5.6,2.2,11,6.2,14.9c4,4,9.4,6.2,15.1,6.1c11.5,0.1,20.9-9.1,21-20.6
		c0-0.1,0-0.3,0-0.4V88.1c0-11.8,9.6-21.4,21.4-21.5c5.7,0,11.1,2.2,15.1,6.2c4.1,3.9,6.3,9.3,6.3,15V130c-0.1,5.6,2.1,10.9,6,14.9
		c3.9,4,9.3,6.2,14.8,6.1c5.6,0.1,11.1-2.1,15-6.1c4-3.9,6.3-9.3,6.2-14.9V87.8c-0.1-5.7,2.2-11.1,6.3-15c8.3-8.3,21.9-8.3,30.2,0
		c4.1,3.9,6.4,9.3,6.3,15L589.6,130z"/>
	<path class="st0" d="M728.3,87.8c0.1,5.7-2.2,11.1-6.3,15c-4,4.1-9.4,6.3-15.1,6.2h-45.8c-6.5,0-11.8,2.4-15.6,7.2
		c-2.8,4.5-5.7,8.9-8.5,13.2c-3.9,4.8-9.2,7.2-15.9,7.2c-5.7,0.1-11.1-2.2-15.1-6.2c-4.1-3.9-6.4-9.3-6.3-15c0-2.5,0.4-4.9,1.3-7.2
		c4.2-12.3,11.9-22.3,23.3-30.1c10.8-7.6,23.7-11.6,36.9-11.6h45.8c5.7-0.1,11.1,2.2,15.1,6.2C726.1,76.7,728.3,82.2,728.3,87.8z
		 M728,144.5c0,2.5-0.4,4.9-1.3,7.2c-4.2,12.3-11.9,22.3-23.2,30.1c-10.8,7.6-23.6,11.6-36.8,11.6h-45.8c-5.7,0.1-11.1-2.2-15.1-6.2
		c-8.3-8.1-8.4-21.4-0.3-29.7c0.1-0.1,0.2-0.2,0.3-0.3c4-4.1,9.4-6.3,15.1-6.2h45.8c6.7,0,11.8-2.4,15.3-7.2c0.7-1,3.6-5.4,8.8-13.2
		c3.9-4.8,9.1-7.2,15.6-7.2c5.7-0.1,11.2,2.1,15.2,6.1C725.9,133.3,728.1,138.8,728,144.5z"/>
	<path class="st0" d="M863.4,172.2c0.1,5.7-2.2,11.1-6.3,15c-4,4.1-9.4,6.3-15.1,6.2h-42.3c-17.8,0-32.9-6.2-45.3-18.5
		c-12.4-12.3-18.6-27.3-18.6-45V45.2c-0.1-5.7,2.1-11.2,6.2-15.1c4-4,9.6-6.2,15.3-6.1c5.7-0.1,11.1,2.2,15,6.3
		c4.1,3.9,6.3,9.4,6.3,15.1v21.3h63.4c5.7-0.1,11.2,2.2,15.1,6.2c8.3,8.1,8.4,21.4,0.3,29.6c-0.1,0.1-0.2,0.2-0.3,0.3
		c-4,4.1-9.4,6.3-15.1,6.2h-63.4v21c-0.1,5.6,2.2,11,6.2,14.8c3.9,4,9.4,6.2,15,6.1h42.3c5.7-0.1,11.1,2.2,15.1,6.2
		C861.2,161.1,863.5,166.6,863.4,172.2z"/>
	<path class="st0" d="M912.2,45.1c0.1,5.7-2.2,11.1-6.3,15c-8.3,8.3-21.9,8.3-30.2,0c-4.1-3.9-6.4-9.3-6.3-15
		c-0.1-5.7,2.2-11.1,6.3-15c8.3-8.3,21.9-8.3,30.2,0C910,34,912.3,39.5,912.2,45.1z M912.2,172.2c0.1,5.7-2.2,11.1-6.3,15
		c-8.3,8.3-21.9,8.3-30.2,0c-4.1-3.9-6.4-9.3-6.3-15v-68.9c-0.1-5.7,2.2-11.1,6.3-15c8.3-8.3,21.9-8.3,30.2,0
		c4.1,3.9,6.4,9.3,6.3,15V172.2z"/>
	<path class="st0" d="M1048.1,88.4c0,18.7-7.1,34.3-21.3,47l17.5,24.4c5.9,8.5,4.9,20.1-2.5,27.4c-4,4.1-9.4,6.4-15.1,6.3
		c-7.4,0-13.2-3.1-17.6-9.3l-22.9-32.6h-21.9v20.7c0.1,5.7-2.2,11.1-6.3,15c-8.3,8.3-21.9,8.3-30.2,0c-4.1-3.9-6.4-9.3-6.3-15v-127
		c-0.1-5.7,2.2-11.1,6.3-15c8.3-8.3,21.9-8.3,30.2,0c0,0,0,0,0,0c4.1,3.9,6.4,9.3,6.3,15V109h19.9c8.9,0,14.9-3.7,18.1-11
		c2-6.7,4.1-13.4,6.3-20.2c3.2-7.1,9.2-10.7,18.1-10.7c5.7-0.1,11.1,2.2,15.1,6.3C1045.9,77.3,1048.2,82.7,1048.1,88.4z"/>
</g>
</svg>
