<svg width="133" height="133" viewBox="0 0 133 133" fill="none" xmlns="http://www.w3.org/2000/svg">
<circle cx="66.2617" cy="66.7715" r="66" fill="#FCFCFC"/>
<mask id="mask0_1874_15381" style="mask-type:alpha" maskUnits="userSpaceOnUse" x="0" y="0" width="133" height="133">
<circle cx="66.2617" cy="66.7715" r="66" fill="white"/>
</mask>
<g mask="url(#mask0_1874_15381)">
<path fill-rule="evenodd" clip-rule="evenodd" d="M59.72 14.2094L59.6917 14.2316L59.1751 14.6225L50.452 3.11821L50.9999 2.70283L59.3074 13.6592L74.9572 1.38867L75.3814 1.9297L59.7229 14.2072L59.72 14.2094ZM62.3849 17.4513L80.6546 2.99601L80.228 2.45686L61.8969 16.9607L61.8987 16.963L61.8961 16.9603L61.4089 17.4454L77.5459 33.6519L77.5454 33.6526L85.1704 39.7178L110.174 18.1807L109.725 17.6598L85.1534 38.8258L78.0106 33.1442L62.3849 17.4513ZM55.8099 16.4043L46.4591 4.11602L47.0063 3.6997L56.3782 16.016L56.7768 16.4829L36.5432 33.7548L21.0795 55.7926L21.078 55.7948L20.6528 56.3316L4.48525 43.5254L4.91212 42.9865L20.5397 55.365L36.0341 33.2833L36.0412 33.2882L36.0368 33.2831L55.8099 16.4043ZM39.4466 36.4925L24.3203 58.179L50.149 78.3191L64.5134 56.8851L64.5153 56.8863L81.5186 42.1608L75.335 37.2421L58.5124 20.1838L39.4466 36.4925ZM59.0204 19.7198L58.5881 19.2143L38.9286 36.0308L38.9296 36.032L23.4777 58.1854L23.3766 58.315L50.2697 79.285L50.6893 78.747L65.0287 57.3511L82.068 42.5945L82.4939 42.058L75.7944 36.7291L59.0204 19.7198ZM88.6059 41.4998L88.6051 41.4992L88.1888 42.0464L112.865 60.8218L113.225 61.1569L128.212 45.0511L127.709 44.5828L113.179 60.197L89.1648 41.9251L113.457 20.8433L113.006 20.3241L88.6059 41.4998ZM67.3493 59.8573L67.348 59.8565L67.3448 59.8612L52.8143 81.483L53.1847 81.732L79.8478 102.523L80.2666 101.985L80.2681 101.986L93.3789 82.1016L110.318 64.3049L110.319 64.3058L110.738 63.7608L85.2649 44.1723L85.2641 44.1734L85.2621 44.1712L67.3493 59.8573ZM85.291 45.0597L67.8654 60.3192L53.7598 81.3086L79.7277 101.557L92.8222 81.697L92.8183 81.6934L109.77 63.8835L85.291 45.0597ZM17.8275 59.1536L3.24921 47.6144L3.67589 47.0754L18.5086 58.8159L18.7745 59.0033L2.62446 81.9187L2.0625 81.5226L17.8275 59.1536ZM116.713 63.082L129.913 49.26L129.416 48.7851L115.741 63.1044L116.239 63.5793L130.865 77.1285L131.332 76.6242L116.713 63.082ZM21.2811 61.3073L21.2805 61.3069L21.7117 60.7714L48.145 82.0569L47.7274 82.5755L24.3406 117.531L23.7692 117.149L47.1777 82.1607L21.8186 61.7401L4.32795 87.7526L3.75743 87.369L21.2811 61.3073ZM96.484 83.8368L96.4825 83.8358L82.3796 104.643L82.6747 104.843L103.537 121.011L103.958 120.467L83.3233 104.476L97.014 84.277L113.887 66.424L130.171 81.9991L130.646 81.5022L114.359 65.9245L114.35 65.9157L113.86 65.4522L96.484 83.8368ZM51.3369 85.335L27.9368 120.424L27.3648 120.043L50.794 84.91L51.2178 84.3687L77.6613 105.07L77.9464 105.261L60.0067 132.136L59.4349 131.754L77.0063 105.431L51.3369 85.335ZM80.9784 108.562L99.9058 123.417L100.33 122.876L80.8606 107.596L80.4362 108.137L64.101 132.363L64.6711 132.747L80.9784 108.562Z" fill="black"/>
<circle cx="66.2617" cy="66.7715" r="65.5" stroke="black"/>
</g>
</svg>